<?xml version="1.0" encoding="UTF-8" standalone="no"?>
<svg id="svg4364" xmlns:rdf="http://www.w3.org/1999/02/22-rdf-syntax-ns#" xmlns="http://www.w3.org/2000/svg" height="24" width="24" version="1.1" xmlns:cc="http://creativecommons.org/ns#" xmlns:dc="http://purl.org/dc/elements/1.1/" viewBox="0 0 24 24">
 <metadata id="metadata4372">
  <rdf:RDF>
   <cc:Work rdf:about="">
    <dc:format>image/svg+xml</dc:format>
    <dc:type rdf:resource="http://purl.org/dc/dcmitype/StillImage"/>
    <dc:title/>
   </cc:Work>
  </rdf:RDF>
 </metadata>
 <path id="path4366" d="m0 0v24h24v-24h-24zm14.534 19.59c-0.406 0.078-0.534-0.171-0.534-0.384v-2.195c0-0.747-0.262-1.233-0.55-1.481 1.782-0.198 3.654-0.875 3.654-3.947 0-0.874-0.311-1.588-0.824-2.147 0.083-0.202 0.357-1.016-0.079-2.117 0 0-0.671-0.215-2.198 0.82-0.639-0.18-1.323-0.267-2.003-0.271-0.68 0.003-1.364 0.091-2.003 0.269-1.528-1.035-2.2-0.82-2.2-0.82-0.434 1.102-0.16 1.915-0.077 2.118-0.512 0.56-0.824 1.273-0.824 2.147 0 3.064 1.867 3.751 3.645 3.954-0.229 0.2-0.436 0.552-0.508 1.07-0.457 0.204-1.614 0.557-2.328-0.666 0 0-0.423-0.768-1.227-0.825 0 0-0.78-0.01-0.055 0.487 0 0 0.525 0.246 0.889 1.17 0 0 0.463 1.428 2.688 0.944v1.489c0 0.211-0.129 0.459-0.528 0.385-3.18-1.057-5.472-4.056-5.472-7.59 0-4.419 3.582-8 8-8s8 3.581 8 8c0 3.533-2.289 6.531-5.466 7.59z"/>
</svg>
